<svg width="25" height="24" viewBox="0 0 25 24" fill="none" xmlns="http://www.w3.org/2000/svg">
<path d="M12.002 14.2501C12.6233 14.2501 13.127 13.7464 13.127 13.1251C13.127 12.5038 12.6233 12.0001 12.002 12.0001C11.3806 12.0001 10.877 12.5038 10.877 13.1251C10.877 13.7464 11.3806 14.2501 12.002 14.2501Z" fill="black"/>
<path d="M19.502 7.50012H16.127V4.87512C16.127 3.7811 15.6924 2.73189 14.9188 1.95831C14.1452 1.18472 13.096 0.750122 12.002 0.750122C10.9079 0.750122 9.85873 1.18472 9.08514 1.95831C8.31155 2.73189 7.87695 3.7811 7.87695 4.87512V7.50012H4.50195C4.10413 7.50012 3.7226 7.65816 3.44129 7.93946C3.15999 8.22077 3.00195 8.6023 3.00195 9.00012V19.5001C3.00195 19.8979 3.15999 20.2795 3.44129 20.5608C3.7226 20.8421 4.10413 21.0001 4.50195 21.0001H19.502C19.8998 21.0001 20.2813 20.8421 20.5626 20.5608C20.8439 20.2795 21.002 19.8979 21.002 19.5001V9.00012C21.002 8.6023 20.8439 8.22077 20.5626 7.93946C20.2813 7.65816 19.8998 7.50012 19.502 7.50012ZM12.752 15.6376V17.2501C12.752 17.449 12.6729 17.6398 12.5323 17.7805C12.3916 17.9211 12.2009 18.0001 12.002 18.0001C11.803 18.0001 11.6123 17.9211 11.4716 17.7805C11.331 17.6398 11.252 17.449 11.252 17.2501V15.6376C10.6477 15.4575 10.1285 15.0658 9.78925 14.5343C9.45002 14.0028 9.31342 13.367 9.40445 12.7431C9.49548 12.1191 9.80805 11.5488 10.285 11.1364C10.762 10.724 11.3714 10.497 12.002 10.497C12.6325 10.497 13.2419 10.724 13.7189 11.1364C14.1959 11.5488 14.5084 12.1191 14.5995 12.7431C14.6905 13.367 14.5539 14.0028 14.2147 14.5343C13.8754 15.0658 13.3562 15.4575 12.752 15.6376ZM14.627 7.50012H9.37695V4.87512C9.37695 4.17893 9.65351 3.51125 10.1458 3.01897C10.6381 2.52668 11.3058 2.25012 12.002 2.25012C12.6981 2.25012 13.3658 2.52668 13.8581 3.01897C14.3504 3.51125 14.627 4.17893 14.627 4.87512V7.50012Z" fill="black"/>
</svg>
