<svg width="20" height="15" viewBox="0 0 20 15" fill="none" xmlns="http://www.w3.org/2000/svg">
<path d="M19.375 5.86719V5.85156C19.3763 5.83299 19.3736 5.81435 19.3672 5.79688V5.77344C19.3672 5.75781 19.3594 5.74219 19.3594 5.72656V5.71094L19.3438 5.64844H19.3359L18.2422 2.92969C18.155 2.69175 17.9963 2.48663 17.7879 2.34254C17.5795 2.19845 17.3315 2.12246 17.0781 2.125H14.375V1.5C14.375 1.33424 14.3092 1.17527 14.1919 1.05806C14.0747 0.940848 13.9158 0.875 13.75 0.875H1.875C1.54348 0.875 1.22554 1.0067 0.991117 1.24112C0.756696 1.47554 0.625 1.79348 0.625 2.125V10.875C0.625 11.2065 0.756696 11.5245 0.991117 11.7589C1.22554 11.9933 1.54348 12.125 1.875 12.125H2.89062C3.02831 12.6628 3.34106 13.1394 3.77957 13.4798C4.21807 13.8202 4.75739 14.0049 5.3125 14.0049C5.86761 14.0049 6.40693 13.8202 6.84543 13.4798C7.28394 13.1394 7.59669 12.6628 7.73438 12.125H12.2656C12.4033 12.6628 12.7161 13.1394 13.1546 13.4798C13.5931 13.8202 14.1324 14.0049 14.6875 14.0049C15.2426 14.0049 15.7819 13.8202 16.2204 13.4798C16.6589 13.1394 16.9717 12.6628 17.1094 12.125H18.125C18.4565 12.125 18.7745 11.9933 19.0089 11.7589C19.2433 11.5245 19.375 11.2065 19.375 10.875V5.875V5.86719ZM14.375 3.375H17.0781L17.8281 5.25H14.375V3.375ZM1.875 2.125H13.125V7.125H1.875V2.125ZM5.3125 12.75C5.06527 12.75 4.8236 12.6767 4.61804 12.5393C4.41248 12.402 4.25226 12.2068 4.15765 11.9784C4.06304 11.7499 4.03829 11.4986 4.08652 11.2561C4.13475 11.0137 4.2538 10.7909 4.42862 10.6161C4.60343 10.4413 4.82616 10.3222 5.06864 10.274C5.31111 10.2258 5.56245 10.2505 5.79085 10.3451C6.01926 10.4398 6.21449 10.6 6.35184 10.8055C6.48919 11.0111 6.5625 11.2528 6.5625 11.5C6.5625 11.8315 6.4308 12.1495 6.19638 12.3839C5.96196 12.6183 5.64402 12.75 5.3125 12.75ZM14.6875 12.75C14.4403 12.75 14.1986 12.6767 13.993 12.5393C13.7875 12.402 13.6273 12.2068 13.5326 11.9784C13.438 11.7499 13.4133 11.4986 13.4615 11.2561C13.5097 11.0137 13.6288 10.7909 13.8036 10.6161C13.9784 10.4413 14.2012 10.3222 14.4436 10.274C14.6861 10.2258 14.9374 10.2505 15.1659 10.3451C15.3943 10.4398 15.5895 10.6 15.7268 10.8055C15.8642 11.0111 15.9375 11.2528 15.9375 11.5C15.9375 11.8315 15.8058 12.1495 15.5714 12.3839C15.337 12.6183 15.019 12.75 14.6875 12.75Z" fill="white"/>
</svg>
